<?xml version="1.0" standalone="no"?>
<!DOCTYPE svg PUBLIC "-//W3C//DTD SVG 20010904//EN"
 "http://www.w3.org/TR/2001/REC-SVG-20010904/DTD/svg10.dtd">
<svg version="1.0" xmlns="http://www.w3.org/2000/svg"
 width="1012.000000pt" height="419.000000pt" viewBox="0 0 1012.000000 419.000000"
 preserveAspectRatio="xMidYMid meet">

<g transform="translate(0.000000,419.000000) scale(0.100000,-0.100000)"
fill="#000000" stroke="none">
<path d="M7303 4110 c-25 -11 -51 -33 -63 -52 -20 -33 -20 -48 -20 -1043 0
-990 0 -1011 20 -1043 32 -53 75 -74 143 -69 66 4 103 26 130 78 16 32 17 97
15 1039 l-3 1005 -24 34 c-26 36 -90 71 -131 71 -14 0 -44 -9 -67 -20z"/>
<path d="M9840 4108 c-85 -45 -80 19 -80 -935 l0 -843 -102 74 c-57 41 -323
239 -593 441 -269 201 -578 431 -685 510 -107 80 -270 201 -362 270 l-168 125
0 -199 0 -199 728 -544 c1173 -878 1231 -917 1351 -906 58 6 103 35 125 82 15
31 16 126 14 1040 -3 996 -3 1005 -24 1033 -24 33 -97 73 -134 73 -14 0 -46
-10 -70 -22z"/>
<path d="M119 4105 c-45 -24 -59 -70 -59 -189 l0 -105 978 -4 c1038 -3 997 -1
1136 -54 186 -70 364 -248 443 -443 71 -176 71 -425 1 -600 -77 -191 -242
-357 -430 -433 -143 -57 -147 -57 -1018 -57 l-800 0 0 540 0 540 -155 0 -155
0 0 -635 c0 -688 -1 -674 55 -725 l27 -25 951 0 952 0 90 24 c336 88 610 308
755 606 60 122 88 225 101 370 29 325 -72 627 -289 856 -162 172 -387 295
-609 334 -125 22 -1934 22 -1974 0z"/>
<path d="M4826 4104 c-88 -21 -173 -71 -246 -144 -49 -50 -104 -129 -226 -325
-89 -143 -321 -516 -516 -830 -447 -719 -429 -689 -435 -735 -13 -93 71 -177
167 -168 60 6 100 34 136 96 15 26 168 272 339 547 171 275 401 644 510 820
226 365 265 413 360 441 119 34 232 -9 304 -115 21 -31 166 -261 323 -511 156
-250 372 -594 480 -765 107 -170 214 -343 238 -383 23 -40 56 -83 72 -97 88
-74 234 -20 253 94 6 38 3 52 -27 110 -26 50 -747 1207 -1066 1711 -79 124
-209 220 -347 255 -74 19 -239 18 -319 -1z"/>
<path d="M1980 1397 c-3 -2 -374 -8 -825 -12 -451 -4 -883 -10 -960 -14 l-140
-6 260 -8 c1101 -33 8072 -34 9405 -1 311 8 319 8 180 15 -80 4 -293 10 -475
13 -410 7 -7438 20 -7445 13z"/>
<path d="M305 827 c-109 -37 -186 -104 -233 -205 -23 -48 -27 -71 -27 -147 0
-82 3 -97 33 -157 40 -82 111 -148 190 -179 45 -17 78 -22 152 -22 111 0 183
22 246 77 l39 34 -39 41 -39 40 -38 -30 c-129 -102 -311 -64 -384 81 -10 19
-20 64 -23 100 -6 82 22 153 79 204 38 35 118 66 169 66 46 0 121 -28 160 -59
l37 -30 38 40 39 39 -24 25 c-13 14 -53 40 -89 58 -55 27 -76 32 -155 34 -56
2 -106 -2 -131 -10z"/>
<path d="M9665 831 c-120 -31 -185 -105 -185 -209 0 -83 58 -146 164 -177 28
-8 90 -26 138 -40 91 -27 118 -48 118 -93 0 -39 -17 -59 -65 -77 -68 -27 -174
-17 -260 24 -37 17 -69 30 -71 28 -2 -1 -12 -23 -23 -47 l-20 -45 28 -17 c89
-57 253 -81 358 -55 109 28 160 72 183 156 15 56 4 106 -33 148 -40 45 -65 57
-197 93 -61 17 -124 37 -140 45 -64 33 -52 128 20 152 54 18 148 15 210 -8 30
-11 62 -22 70 -25 10 -3 21 9 34 42 22 53 23 52 -64 85 -60 23 -212 34 -265
20z"/>
<path d="M1200 475 l0 -355 270 0 270 0 0 55 0 55 -200 0 -200 0 0 98 0 97
175 -3 175 -3 0 56 0 55 -175 0 -175 0 0 95 0 95 190 0 190 0 0 55 0 55 -260
0 -260 0 0 -355z"/>
<path d="M2270 475 l0 -355 260 0 260 0 0 55 0 55 -190 0 -190 0 0 300 0 300
-70 0 -70 0 0 -355z"/>
<path d="M3290 601 c0 -200 3 -237 20 -292 25 -82 66 -131 138 -166 51 -25 68
-28 157 -28 113 0 173 20 233 78 77 74 92 142 92 422 l0 215 -65 0 -65 0 0
-204 c0 -293 -12 -338 -101 -384 -37 -20 -55 -23 -108 -19 -67 5 -99 21 -134
69 -30 40 -36 96 -37 326 l0 212 -65 0 -65 0 0 -229z"/>
<path d="M4552 478 l3 -353 258 -3 257 -2 0 55 0 55 -190 0 -190 0 0 300 0
300 -70 0 -70 0 2 -352z"/>
<path d="M5835 548 c-71 -156 -143 -316 -162 -355 l-32 -73 68 0 68 0 38 85
38 85 175 -2 175 -3 35 -82 35 -83 68 0 c38 0 69 2 69 4 0 2 -71 161 -158 352
l-159 349 -65 3 -65 3 -128 -283z m238 42 c20 -47 47 -111 61 -142 l26 -58
-134 0 -134 0 66 150 c36 83 69 147 72 143 4 -5 23 -46 43 -93z"/>
<path d="M7030 475 l0 -355 70 0 70 0 0 105 0 105 98 0 97 0 73 -105 74 -105
70 0 70 0 -18 28 c-10 15 -46 67 -82 116 -35 48 -60 91 -55 95 4 4 27 22 49
39 117 90 111 288 -11 372 -70 48 -137 60 -332 60 l-173 0 0 -355z m390 227
c72 -36 100 -121 62 -191 -31 -57 -70 -71 -199 -71 l-113 0 0 140 0 140 108 0
c82 0 115 -4 142 -18z"/>
<path d="M8300 475 l0 -355 273 0 c151 0 276 2 278 4 2 2 2 27 1 55 l-4 51
-204 0 -204 0 0 95 0 95 180 0 180 0 0 55 0 55 -180 0 -180 0 0 95 0 95 195 0
195 0 0 55 0 55 -265 0 -265 0 0 -355z"/>
</g>
</svg>
